#!OML:ASF F:\VICON\USERDATA\INSTALL\rory3\rory3.ASF
:FULLY-SPECIFIED
:DEGREES
79
root 0.5166926954696515 17.055226006676037 9.436508986329256 5.280349017847919 -1.1235641615440273 -3.177267850002161
lfemur -34.36078095484224 6.068688146131622 -15.55508198428147
ltibia 57.78465108183822
lfoot -12.343884166446376 7.006755773071263
ltoes -13.05227482138977
rfemur -33.06628768829879 -3.0558878912990437 22.883408889307916
rtibia 53.3827223829284
rfoot -18.23834820924793 -1.2256540801866291
rtoes 1.891830381359731
lowerback 1.8668970921741797 0.8423704745674773 0.027131233537903643
upperback 4.412982964945012 1.0790786654010167 2.0077203937010246
thorax -0.9640982972621654 0.494692181678028 1.927886072377666
lowerneck -10.578845217153098 -0.7046420039984037 -1.5417312691101863
upperneck 31.791997838626365 -1.6056273326763706 2.605956959866106
head 12.19218441126171 -0.5313582972621332 0.9526662233010869
lclavicle 1.0963794486041124e-15 -2.2125436982276575e-15
lhumerus -30.623400118674823 -10.403893530862108 84.36523349550873
lradius 31.425690866765414
lwrist 25.06531977281089
lhand -26.622690337983247 -10.602540081026287
lfingers 7.12502
lthumb 0.3640874942035226 19.93549359784508
rclavicle 1.093253383348561e-15 -2.216478350392267e-15
rhumerus -20.333342054582342 -5.391898072558525 -80.99741857644308
rradius 42.032650688413085
rwrist 30.767002498475424
rhand -19.39880442833811 -27.945661990326737
rfingers 7.12502
rthumb 6.201988818353138 -58.20696627356939
80
root 0.5035210263178033 17.255364792757927 9.618324134149601 7.216143736677422 -0.5903835535116995 -3.1849300945897268
lfemur -31.251543907274634 5.151998201097281 -15.425268861672201
ltibia 51.77760714057117
lfoot -9.983971164153566 5.48714668896001
ltoes -9.1309494492076
rfemur -30.891594334862326 -2.863891773618035 22.362114928229833
rtibia 48.179455394789315
rfoot -17.223444468669175 -0.6261436084247043
rtoes 4.661291708275485
lowerback 0.17616500798021684 0.5164318670276324 -0.41277766199490185
upperback 3.53493091165234 0.6013985899991862 1.9986396589013866
thorax -0.4564857094841024 0.24829732002264318 2.0558849183593106
lowerneck -10.995879534211891 -0.6782064978419358 -1.6325298553832537
upperneck 31.203918557612088 -1.55081828513506 2.685085527551653
head 12.156240123147631 -0.5169629528617444 0.9681994876427424
lclavicle 1.0965810266160452e-15 -2.2122068802054236e-15
lhumerus -31.166564454391903 -9.28782611395067 83.03090056136044
lradius 31.088154889690106
lwrist 24.20230606386407
lhand -25.940681269996926 -9.88524017246325
lfingers 7.12502
lthumb 0.6520966689126513 20.27259383704843
rclavicle 1.0936412786032462e-15 -2.2159950253420353e-15
rhumerus -21.831449985487097 -4.866336747332816 -80.67284825197
rradius 43.70471787800556
rwrist 29.762627535647606
rhand -19.788439061780114 -27.931048632766768
rfingers 7.12502
rthumb 5.62823177349815 -58.18383846783581
81
root 0.48806978514900323 17.329286749257097 9.706300007760287 7.451637726254513 -0.5013026616008396 -2.9968021434634933
lfemur -28.07640318123088 5.575438472056895 -15.564517961879934
ltibia 46.97407119879833
lfoot -8.94755074011046 4.78216746343801
ltoes -7.537651458944668
rfemur -27.533824211314908 -2.8976211706585806 21.687140889751735
rtibia 44.294576701408374
rfoot -16.966648926680136 0.16198201712246618
rtoes 6.828266627630209
lowerback -0.41979235641292223 0.5080760133436926 -0.7990283074780538
upperback 3.30403245242171 0.5700798054537624 1.8323189050152497
thorax -0.12081186537498123 0.266287474049972 1.900261415000014
lowerneck -11.258648588703998 -0.6959079305393107 -1.712717518372278
upperneck 30.87580848299505 -1.5273893454998344 2.614750291007242
head 12.150181960361941 -0.5093643401979553 0.9418988618535246
lclavicle 1.0960057523798318e-15 -2.212858680457959e-15
lhumerus -31.08024652284986 -8.031241480723423 81.46335553965254
lradius 29.78312714797582
lwrist 24.917431360794595
lhand -25.394720622511603 -9.251526427463785
lfingers 7.12502
lthumb 1.0781701574302016 20.80740311532152
rclavicle 1.0931272792851472e-15 -2.2166319772460163e-15
rhumerus -23.098747063676285 -5.520938930697155 -80.31909293247182
rradius 43.68455667407418
rwrist 29.868476424544866
rhand -20.244514758171047 -27.935840629644478
rfingers 7.12502
rthumb 5.257932757254519 -58.112599899779234
82
root 0.4795010348163369 17.307084172109167 9.857811169872198 6.953551851035095 -0.2949732727679185 -2.46506888573727
lfemur -25.498455765934683 6.585783827552521 -16.239079741436612
ltibia 44.51119187510855
lfoot -8.373362705077827 4.249309026430182
ltoes -7.136714015832606
rfemur -23.989025722439806 -3.594396506683363 20.69062887072892
rtibia 40.742755457857314
rfoot -17.332111978470657 0.16508163835006817
rtoes 7.730421424269056
lowerback -1.1775752863684352 0.4169041672347912 -1.3712637866537936
upperback 3.1681265935709115 0.45400492067146625 1.558113180237666
thorax 0.5531654246656887 0.1992497425642674 1.7598166492557996
lowerneck -11.433833473824054 -0.7052472773352371 -1.8040301336469788
upperneck 31.28250180669354 -1.509728674360814 2.622366901480835
head 12.365299778643049 -0.5171402423373164 0.9582261672723249
lclavicle 1.093991443922451e-15 -2.21536444560321e-15
lhumerus -30.323451633928677 -7.193725259475146 80.50287348787266
lradius 28.178904740963674
lwrist 23.666961521051018
lhand -24.95256588334293 -8.598304283392007
lfingers 7.12502
lthumb 1.6439279058029215 21.567755317984613
rclavicle 1.0946866466498466e-15 -2.2147003849325644e-15
rhumerus -24.23980756638097 -6.973107798838608 -79.71895865595215
rradius 42.258739258411
rwrist 30.550680272580323
rhand -20.47369990728834 -27.937182691100574
rfingers 7.12502
rthumb 5.1631028965506625 -57.98244938273725
